<svg width="36" height="40" viewBox="0 0 36 40" fill="none" xmlns="http://www.w3.org/2000/svg">
<path d="M9.97217 37H8.90576V29.9414H8.86133L5.94141 36.9365H4.97656L2.05664 29.9414H2.01221V37H0.945801V27.8403H2.27246L5.43359 35.4829H5.48438L8.64551 27.8403H9.97217V37ZM14.4663 31.0649C13.9289 31.0649 13.4845 31.2427 13.1333 31.5981C12.7778 31.9536 12.5811 32.4212 12.543 33.001H16.3071C16.2944 32.4212 16.1188 31.9536 15.7803 31.5981C15.446 31.2427 15.008 31.0649 14.4663 31.0649ZM17.3735 35.0449C17.2804 35.6331 16.9673 36.1156 16.4341 36.4922C15.9009 36.873 15.2682 37.0635 14.5361 37.0635C13.5755 37.0635 12.8117 36.7524 12.2446 36.1304C11.6818 35.5083 11.4004 34.6662 11.4004 33.604C11.4004 32.5418 11.6818 31.6912 12.2446 31.0522C12.8075 30.4132 13.5544 30.0938 14.4854 30.0938C15.3994 30.0938 16.123 30.3942 16.6562 30.9951C17.1895 31.6003 17.4561 32.4191 17.4561 33.4517V33.8833H12.543V33.9468C12.543 34.5985 12.7271 35.119 13.0952 35.5083C13.4634 35.8976 13.9521 36.0923 14.5615 36.0923C14.9889 36.0923 15.3592 35.9971 15.6724 35.8066C15.9813 35.6204 16.1844 35.3665 16.2817 35.0449H17.3735ZM23.3149 33.9023H19.8364V37H18.7446V30.1572H19.8364V32.9883H23.3149V30.1572H24.4067V37H23.3149V33.9023ZM31.4526 37.1206C30.547 37.1206 29.8213 36.835 29.2754 36.2637C28.7295 35.6924 28.4269 34.9053 28.3677 33.9023H27.1235V37H26.0317V30.1572H27.1235V32.9883H28.3931C28.4904 32.0615 28.8078 31.3379 29.3452 30.8174C29.8869 30.2969 30.5894 30.0366 31.4526 30.0366C32.409 30.0366 33.1623 30.3519 33.7124 30.9824C34.2668 31.613 34.5439 32.4784 34.5439 33.5786C34.5439 34.6746 34.2668 35.54 33.7124 36.1748C33.1623 36.8053 32.409 37.1206 31.4526 37.1206ZM31.4526 36.1367C32.0789 36.1367 32.5635 35.9124 32.9062 35.4639C33.2448 35.0195 33.4141 34.3911 33.4141 33.5786C33.4141 32.7661 33.2448 32.1356 32.9062 31.687C32.5635 31.2427 32.0789 31.0205 31.4526 31.0205C30.8263 31.0205 30.3418 31.2427 29.999 31.687C29.6605 32.1356 29.4912 32.7661 29.4912 33.5786C29.4912 34.3911 29.6605 35.0195 29.999 35.4639C30.3418 35.9124 30.8263 36.1367 31.4526 36.1367Z" fill="#FD3A69"/>
<path d="M18.7767 6.51261C18.7767 5.96032 18.329 5.51261 17.7767 5.51261H16.1964L16.8322 4.24112L20.1388 3.29642C20.4515 3.20708 20.6325 2.88116 20.5432 2.56846C20.4539 2.25577 20.1279 2.07471 19.8152 2.16405L16.0105 3.25113L14.8798 5.51261H8C7.44771 5.51261 7 5.96032 7 6.51261V7.45678C7 8.00907 7.44772 8.45678 8 8.45678H17.7767C18.329 8.45678 18.7767 8.00907 18.7767 7.45678V6.51261Z" fill="#FD3A69"/>
<path d="M15.2445 17.8781H25.8436V19.0558H15.2445V17.8781Z" fill="#FD3A69"/>
<path d="M12.8874 16.7007C12.8874 13.7955 14.8099 11.3311 17.4495 10.5125C17.4842 10.0384 17.1089 9.63464 16.6335 9.63464H9.843C9.00439 9.63464 8.34681 10.3547 8.42273 11.1899L9.24015 20.1813C9.3338 21.2114 10.1975 22.0002 11.2319 22.0002H13.2043C13.0032 21.6535 12.8874 21.2514 12.8874 20.8225V16.7007Z" fill="#FD3A69"/>
<path d="M14.0652 16.7005H27.0196C27.0196 13.7783 24.6422 11.4009 21.72 11.4009H19.3647C16.4425 11.4009 14.0652 13.7783 14.0652 16.7005Z" fill="#FD3A69"/>
<path d="M14.0652 20.8224C14.0652 21.4718 14.5935 22 15.2429 22H25.8407C26.49 22 27.0183 21.4718 27.0183 20.8224V20.2335H14.0652V20.8224Z" fill="#FD3A69"/>
</svg>
