<svg width="47" height="37" viewBox="0 0 47 37" fill="none" xmlns="http://www.w3.org/2000/svg">
<path d="M6.99512 33.7826V25.664H2.09473V33.7826H0.945801V24.623H8.125V33.7826H6.99512ZM12.7144 33.8461C11.7537 33.8461 10.9878 33.5308 10.4165 32.9003C9.84521 32.2698 9.55957 31.4234 9.55957 30.3612C9.55957 29.2991 9.84521 28.4527 10.4165 27.8222C10.9878 27.1916 11.7537 26.8764 12.7144 26.8764C13.675 26.8764 14.4409 27.1916 15.0122 27.8222C15.5835 28.4527 15.8691 29.2991 15.8691 30.3612C15.8691 31.4234 15.5835 32.2698 15.0122 32.9003C14.4409 33.5308 13.675 33.8461 12.7144 33.8461ZM12.7144 32.8622C13.3534 32.8622 13.8506 32.6422 14.2061 32.2021C14.5658 31.7577 14.7456 31.1441 14.7456 30.3612C14.7456 29.5741 14.5658 28.9605 14.2061 28.5204C13.8506 28.0803 13.3534 27.8603 12.7144 27.8603C12.0754 27.8603 11.5781 28.0803 11.2227 28.5204C10.863 28.9648 10.6831 29.5784 10.6831 30.3612C10.6831 31.1441 10.863 31.7577 11.2227 32.2021C11.5824 32.6422 12.0796 32.8622 12.7144 32.8622ZM20.3506 27.8031C19.6058 27.8201 19.0176 28.0549 18.5859 28.5077C18.1501 28.9648 17.9321 29.5826 17.9321 30.3612C17.9321 31.1357 18.1501 31.7514 18.5859 32.2084C19.0176 32.6612 19.6058 32.8982 20.3506 32.9193V27.8031ZM23.8291 30.3612C23.8291 29.5868 23.6112 28.9711 23.1753 28.5141C22.7437 28.0613 22.1576 27.8243 21.417 27.8031V32.9193C22.1576 32.9024 22.7437 32.6676 23.1753 32.2148C23.6112 31.7577 23.8291 31.1399 23.8291 30.3612ZM20.3506 33.8651C19.2842 33.844 18.4315 33.5181 17.7925 32.8876C17.145 32.2528 16.8213 31.4107 16.8213 30.3612C16.8213 29.3075 17.145 28.4633 17.7925 27.8285C18.4315 27.198 19.2842 26.8743 20.3506 26.8573V24.623H21.417V26.8573C22.4792 26.8785 23.3298 27.2043 23.9688 27.8349C24.6162 28.4696 24.9399 29.3118 24.9399 30.3612C24.9399 31.4149 24.6162 32.2592 23.9688 32.894C23.3298 33.5245 22.4792 33.8482 21.417 33.8651V36.0678H20.3506V33.8651ZM26.2349 33.7826V26.9398H27.3267V32.0751H27.3774L30.9004 26.9398H31.9922V33.7826H30.9004V28.6474H30.8496L27.3267 33.7826H26.2349ZM35.4136 30.7802C35.3374 31.7958 35.1618 32.5406 34.8867 33.0146C34.5693 33.5647 34.0742 33.8398 33.4014 33.8398C33.2448 33.8398 33.1115 33.8165 33.0015 33.7699V32.767C33.103 32.8009 33.2173 32.8178 33.3442 32.8178C33.6659 32.8178 33.9113 32.6316 34.0806 32.2592C34.2287 31.9333 34.326 31.4319 34.3726 30.7548L34.6392 26.9398H39.1143V33.7826H38.0225V27.8539H35.6294L35.4136 30.7802ZM41.8374 30.0502V32.8686H43.126C43.5745 32.8686 43.9342 32.7395 44.2051 32.4814C44.4717 32.2274 44.605 31.8868 44.605 31.4594C44.605 31.032 44.4696 30.6892 44.1987 30.4311C43.9321 30.1772 43.5745 30.0502 43.126 30.0502H41.8374ZM40.7456 26.9398H41.8374V29.1361H43.126C43.9089 29.1361 44.533 29.3456 44.9985 29.7646C45.464 30.1835 45.6968 30.7484 45.6968 31.4594C45.6968 32.1703 45.464 32.7353 44.9985 33.1542C44.533 33.5732 43.9089 33.7826 43.126 33.7826H40.7456V26.9398Z" fill="#C3C4C9"/>
<path fill-rule="evenodd" clip-rule="evenodd" d="M17.6001 4.95245C17.6001 2.22167 20.0225 0 23.0001 0C25.9776 0 28.4001 2.22167 28.4001 4.95245C28.4001 7.68322 25.9776 9.90489 23.0001 9.90489C20.0225 9.90489 17.6001 7.68322 17.6001 4.95245ZM24.2 11.0054C26.2804 11.0054 28.2402 11.7636 29.7186 13.1403C31.1898 14.5103 32 16.3186 32 18.2323C32 18.5362 31.7314 18.7826 31.4 18.7826H14.6C14.2686 18.7826 14 18.5362 14 18.2323C14 16.3186 14.8102 14.5103 16.2814 13.1403C17.7598 11.7636 19.7197 11.0054 21.8 11.0054H24.2Z" fill="#C3C4C9"/>
</svg>
