<svg width="51" height="38" viewBox="0 0 51 38" fill="none" xmlns="http://www.w3.org/2000/svg">
<path d="M7.93457 34.2H6.3667L2.13916 29.7503H2.08838V34.2H0.945801V25.0403H2.08838V29.2615H2.13916L6.07471 25.0403H7.50928L3.34521 29.4202L7.93457 34.2ZM11.356 34.2635C10.3953 34.2635 9.62939 33.9482 9.05811 33.3177C8.48682 32.6872 8.20117 31.8408 8.20117 30.7786C8.20117 29.7165 8.48682 28.8701 9.05811 28.2396C9.62939 27.609 10.3953 27.2938 11.356 27.2938C12.3166 27.2938 13.0825 27.609 13.6538 28.2396C14.2251 28.8701 14.5107 29.7165 14.5107 30.7786C14.5107 31.8408 14.2251 32.6872 13.6538 33.3177C13.0825 33.9482 12.3166 34.2635 11.356 34.2635ZM11.356 33.2796C11.995 33.2796 12.4922 33.0595 12.8477 32.6194C13.2074 32.1751 13.3872 31.5615 13.3872 30.7786C13.3872 29.9915 13.2074 29.3779 12.8477 28.9378C12.4922 28.4977 11.995 28.2776 11.356 28.2776C10.717 28.2776 10.2197 28.4977 9.86426 28.9378C9.50456 29.3821 9.32471 29.9957 9.32471 30.7786C9.32471 31.5615 9.50456 32.1751 9.86426 32.6194C10.224 33.0595 10.7212 33.2796 11.356 33.2796ZM19.0874 27.2938C19.9634 27.2938 20.6701 27.6133 21.2075 28.2523C21.7492 28.8955 22.02 29.7376 22.02 30.7786C22.02 31.8196 21.7513 32.6618 21.2139 33.305C20.6764 33.944 19.9761 34.2635 19.1128 34.2635C18.1099 34.2635 17.382 33.872 16.9292 33.0892H16.9038V36.4852H15.7993V27.3572H16.8467V28.4681H16.8721C17.071 28.1126 17.3714 27.827 17.7734 27.6111C18.1755 27.3996 18.6134 27.2938 19.0874 27.2938ZM18.8843 33.2796C19.4894 33.2796 19.974 33.0532 20.3379 32.6004C20.7061 32.1434 20.8901 31.5361 20.8901 30.7786C20.8901 30.0254 20.7061 29.4202 20.3379 28.9632C19.974 28.5062 19.4894 28.2776 18.8843 28.2776C18.2961 28.2776 17.8179 28.5083 17.4497 28.9695C17.0815 29.4308 16.8975 30.0338 16.8975 30.7786C16.8975 31.5234 17.0815 32.1264 17.4497 32.5877C17.8136 33.049 18.2918 33.2796 18.8843 33.2796ZM25.5684 34.3143C24.8236 34.3143 24.2057 34.145 23.7148 33.8065C23.2197 33.4679 22.9425 33.0151 22.8833 32.4481H24.0068C24.0745 32.7485 24.2438 32.9813 24.5146 33.1463C24.7897 33.3113 25.141 33.3939 25.5684 33.3939C26.0635 33.3939 26.4507 33.2859 26.73 33.0701C27.0008 32.8628 27.1362 32.5856 27.1362 32.2386C27.1362 31.4811 26.6136 31.1024 25.5684 31.1024H24.5337V30.1883H25.5684C26.4613 30.1883 26.9077 29.8476 26.9077 29.1663C26.9077 28.8616 26.8019 28.6225 26.5903 28.449C26.3618 28.2586 26.0317 28.1634 25.6001 28.1634C25.1896 28.1634 24.8511 28.2459 24.5845 28.4109C24.3179 28.576 24.1613 28.796 24.1147 29.0711H23.0356C23.1076 28.5083 23.3742 28.0618 23.8354 27.7318C24.2967 27.4017 24.8849 27.2366 25.6001 27.2366C26.3576 27.2366 26.9479 27.408 27.3711 27.7508C27.7816 28.0809 27.9868 28.5252 27.9868 29.0838C27.9868 29.4393 27.8831 29.7524 27.6758 30.0233C27.4642 30.3026 27.187 30.4824 26.8442 30.5628V30.6136C27.7625 30.8125 28.2217 31.3351 28.2217 32.1815C28.2217 32.8162 27.9784 33.3304 27.4917 33.7239C27.005 34.1175 26.3639 34.3143 25.5684 34.3143ZM29.5483 34.2V27.3572H30.6401V32.4925H30.6909L34.2139 27.3572H35.3057V34.2H34.2139V29.0648H34.1631L30.6401 34.2H29.5483ZM41.5073 31.1024H38.0288V34.2H36.937V27.3572H38.0288V30.1883H41.5073V27.3572H42.5991V34.2H41.5073V31.1024ZM46.4585 33.305C47.0171 33.305 47.4805 33.1442 47.8486 32.8226C48.2126 32.4967 48.3945 32.0884 48.3945 31.5975V31.0452L46.6045 31.1595C45.5635 31.223 45.043 31.589 45.043 32.2576C45.043 32.575 45.172 32.8289 45.4302 33.0193C45.6841 33.2098 46.0269 33.305 46.4585 33.305ZM46.2236 34.2635C45.5296 34.2635 44.971 34.0794 44.5479 33.7112C44.1247 33.3431 43.9131 32.8564 43.9131 32.2513C43.9131 31.6631 44.1331 31.2018 44.5732 30.8675C45.0133 30.529 45.6481 30.3343 46.4775 30.2835L48.3945 30.1693V29.598C48.3945 29.1748 48.2591 28.8489 47.9883 28.6204C47.7174 28.3919 47.3302 28.2776 46.8267 28.2776C46.4289 28.2776 46.0946 28.3729 45.8237 28.5633C45.5487 28.7537 45.3773 29.0097 45.3096 29.3314H44.2495C44.2664 28.7558 44.5225 28.2713 45.0176 27.8777C45.5127 27.4884 46.12 27.2938 46.8394 27.2938C47.6476 27.2938 48.293 27.4927 48.7754 27.8904C49.2578 28.2925 49.499 28.8299 49.499 29.5027V34.2H48.4517V33.013H48.4263C48.2316 33.3939 47.9354 33.6964 47.5376 33.9207C47.1398 34.1492 46.7018 34.2635 46.2236 34.2635Z" fill="#C3C4C9"/>
<path d="M32.1331 5.36796V2.89051C32.1331 1.297 30.9836 0 29.5427 0H22.4805C21.0396 0 19.8665 1.29654 19.8665 2.89051V5.3675H17.1373C16.5092 5.3675 16 5.93068 16 6.62534V9.35967C16 10.0548 16.5092 10.6175 17.1373 10.6175H17.4763L18.719 18.1678C18.8172 18.7655 19.2885 19.2 19.8378 19.2H32.1858C32.7355 19.2 33.206 18.7655 33.3046 18.1673L34.5465 10.6175H34.8627C35.4908 10.6175 36 10.0548 36 9.35967V6.62534C36 5.93068 35.4908 5.3675 34.8627 5.3675L32.1331 5.36796ZM21.9734 2.89051C21.9734 2.58654 22.2056 2.33013 22.4805 2.33013H29.544C29.8184 2.33013 30.0271 2.58654 30.0271 2.89051V5.3675H21.9734V2.89051ZM23.5466 14.7048C23.5466 15.1882 23.1971 15.5799 22.76 15.5799C22.3232 15.5799 21.9734 15.1882 21.9734 14.7048V9.90094C21.9734 9.41748 22.3232 9.02633 22.76 9.02633C23.1975 9.02633 23.5466 9.41841 23.5466 9.90094V14.7048ZM26.8001 14.7048C26.8001 15.1882 26.4502 15.5799 26.0135 15.5799C25.5768 15.5799 25.2265 15.1882 25.2265 14.7048V9.90094C25.2265 9.41748 25.5768 9.02633 26.0135 9.02633C26.4506 9.02633 26.8001 9.41841 26.8001 9.90094V14.7048ZM30.0536 14.7048C30.0536 15.1882 29.7037 15.5799 29.2674 15.5799C28.8303 15.5799 28.4804 15.1882 28.4804 14.7048V9.90094C28.4804 9.41748 28.8303 9.02633 29.2674 9.02633C29.7037 9.02633 30.0536 9.41841 30.0536 9.90094V14.7048Z" fill="#C3C4C9"/>
</svg>
