<svg width="51" height="39" viewBox="0 0 51 39" fill="none" xmlns="http://www.w3.org/2000/svg">
<path d="M7.93457 35.2105H6.3667L2.13916 30.7608H2.08838V35.2105H0.945801V26.0509H2.08838V30.2721H2.13916L6.07471 26.0509H7.50928L3.34521 30.4308L7.93457 35.2105ZM11.356 35.274C10.3953 35.274 9.62939 34.9588 9.05811 34.3282C8.48682 33.6977 8.20117 32.8513 8.20117 31.7892C8.20117 30.727 8.48682 29.8806 9.05811 29.2501C9.62939 28.6196 10.3953 28.3043 11.356 28.3043C12.3166 28.3043 13.0825 28.6196 13.6538 29.2501C14.2251 29.8806 14.5107 30.727 14.5107 31.7892C14.5107 32.8513 14.2251 33.6977 13.6538 34.3282C13.0825 34.9588 12.3166 35.274 11.356 35.274ZM11.356 34.2901C11.995 34.2901 12.4922 34.0701 12.8477 33.63C13.2074 33.1856 13.3872 32.572 13.3872 31.7892C13.3872 31.002 13.2074 30.3884 12.8477 29.9483C12.4922 29.5082 11.995 29.2882 11.356 29.2882C10.717 29.2882 10.2197 29.5082 9.86426 29.9483C9.50456 30.3927 9.32471 31.0063 9.32471 31.7892C9.32471 32.572 9.50456 33.1856 9.86426 33.63C10.224 34.0701 10.7212 34.2901 11.356 34.2901ZM20.3696 32.1129H16.8911V35.2105H15.7993V28.3678H16.8911V31.1988H20.3696V28.3678H21.4614V35.2105H20.3696V32.1129ZM28.063 29.2818H25.8413V35.2105H24.7495V29.2818H22.5278V28.3678H28.063V29.2818ZM31.1733 34.3155C31.7319 34.3155 32.1953 34.1547 32.5635 33.8331C32.9274 33.5073 33.1094 33.0989 33.1094 32.608V32.0558L31.3193 32.17C30.2783 32.2335 29.7578 32.5995 29.7578 33.2682C29.7578 33.5855 29.8869 33.8394 30.145 34.0299C30.3989 34.2203 30.7417 34.3155 31.1733 34.3155ZM30.9385 35.274C30.2445 35.274 29.6859 35.0899 29.2627 34.7218C28.8395 34.3536 28.6279 33.867 28.6279 33.2618C28.6279 32.6736 28.848 32.2123 29.2881 31.878C29.7282 31.5395 30.363 31.3448 31.1924 31.294L33.1094 31.1798V30.6085C33.1094 30.1853 32.974 29.8595 32.7031 29.631C32.4323 29.4024 32.0451 29.2882 31.5415 29.2882C31.1437 29.2882 30.8094 29.3834 30.5386 29.5738C30.2635 29.7643 30.0921 30.0203 30.0244 30.3419H28.9644C28.9813 29.7664 29.2373 29.2818 29.7324 28.8883C30.2275 28.499 30.8348 28.3043 31.5542 28.3043C32.3625 28.3043 33.0078 28.5032 33.4902 28.901C33.9727 29.303 34.2139 29.8404 34.2139 30.5133V35.2105H33.1665V34.0235H33.1411C32.9465 34.4044 32.6502 34.707 32.2524 34.9312C31.8547 35.1598 31.4167 35.274 30.9385 35.274ZM40.6187 29.2818H38.397V35.2105H37.3052V29.2818H35.0835V28.3678H40.6187V29.2818ZM47.4995 28.3678H48.5913V35.2105H47.4995V28.3678ZM42.7769 31.4781V34.2965H44.0654C44.514 34.2965 44.8737 34.1674 45.1445 33.9093C45.4111 33.6554 45.5444 33.3147 45.5444 32.8873C45.5444 32.4599 45.409 32.1171 45.1382 31.859C44.8716 31.6051 44.514 31.4781 44.0654 31.4781H42.7769ZM41.6851 28.3678H42.7769V30.5641H44.0654C44.8483 30.5641 45.4725 30.7735 45.938 31.1925C46.4035 31.6114 46.6362 32.1764 46.6362 32.8873C46.6362 33.5982 46.4035 34.1632 45.938 34.5821C45.4725 35.0011 44.8483 35.2105 44.0654 35.2105H41.6851V28.3678Z" fill="#C3C4C9"/>
<path d="M24 0C19.5888 0 16 3.2835 16 7.31946C16 12.3282 23.1592 19.6813 23.464 19.9919C23.7503 20.2837 24.2502 20.2831 24.536 19.9919C24.8408 19.6813 32 12.3282 32 7.31946C31.9999 3.2835 28.4112 0 24 0ZM24 11.0021C21.7806 11.0021 19.975 9.35006 19.975 7.31946C19.975 5.28885 21.7806 3.63687 24 3.63687C26.2194 3.63687 28.0249 5.28889 28.0249 7.3195C28.0249 9.3501 26.2194 11.0021 24 11.0021Z" fill="#C3C4C9"/>
</svg>
